<?xml version="1.0" encoding="utf-8"?>
<!-- Generator: Adobe Illustrator 25.2.1, SVG Export Plug-In . SVG Version: 6.00 Build 0)  -->
<svg version="1.1" id="Layer_1" xmlns="http://www.w3.org/2000/svg" xmlns:xlink="http://www.w3.org/1999/xlink" x="0px" y="0px"
	 viewBox="0 0 800 680" style="enable-background:new 0 0 800 680;" xml:space="preserve">
<style type="text/css">
	.st0{fill:url(#Layer_2_2_);}
</style>
<linearGradient id="Layer_2_2_" gradientUnits="userSpaceOnUse" x1="35.3895" y1="544.4503" x2="535.3389" y2="44.5009">
	<stop  offset="0" style="stop-color:#414050"/>
	<stop  offset="1" style="stop-color:#D36764"/>
</linearGradient>
<path id="Layer_2_1_" class="st0" d="M97.4,0c3.1,0.4,6.2,0.9,9.2,1.3c11.7,1.6,22.9,5.9,32.7,12.4c7.5,5.1,13.5,11.9,17.7,19.9
	c0.5,1,1,2,1.6,3c5.3,9.4,6.4,19.4,4.6,29.7c-1.6,8.4-5,16.3-10.1,23.2c-5.5,7.9-12.5,14.6-20.6,19.8c-0.6,0.4-1.2,0.8-1.7,1.3
	c-4.2,4-9,7.2-14.2,9.7c-1.8,0.9-1.8,1-0.6,2.6c2.6,3.3,5.4,6.5,7.9,10c2.6,3.7,5.2,7.3,7.9,10.9c8,10.9,15.5,22.1,24,32.7
	c3,3.8,5.7,7.9,8.6,11.9c2.2,3,4.8,5.8,7.5,8.4c5.4,4.9,11.5,6.3,18.5,4.6c2.7-0.6,5.4-1.4,8-2.4c2-0.8,4.4,0.1,5.2,2.2
	c0.1,0.1,0.1,0.3,0.1,0.4c0.5,1.2,0.1,2.7-1,3.4c-0.6,0.4-1.2,0.8-1.9,1.1c-4.7,2.1-9.7,3.3-14.8,3.5c-4.8,0.3-9.6,0.1-14.3-0.5
	c-5.1-0.7-9.9-2.7-14.1-5.7c-8.3-5.9-15.7-13-21.9-21c-8.2-10.6-16.5-21-25.1-31.2c-6.7-8.3-14.8-15.4-23.9-21
	c-1.2-0.8-2.6-1.3-4-1.5c-3.5-0.5-5.5,0.8-6.3,4.2c-0.8,3.6-0.4,7.4,1.2,10.8c1.8,3.9,4.4,7.5,7.7,10.3c2.6,2.5,5.4,4.7,8.4,6.8
	c5.3,3.6,9.7,8,14.3,12.3c7.2,6.7,14.3,13.5,21.3,20.4c9.3,9.1,19,17.9,30,25.1c20.5,13.6,43.9,22.5,68.3,25.9
	c1.5,0.2,3,0.4,4.5,0.6c1.4,0.1,1.6-0.1,1.4-1.4c-0.3-2.1-0.7-4.1-1.2-6.1c-0.7-3.2-0.2-4.1,2.9-5.2c6.1-2.1,12.2-2.6,18.4-0.5
	c5.1,1.7,6.7,3.6,7.1,8.9c0.1,1.3,0.3,2.6,0.4,3.8c0.2,1.9,0.7,2.4,2.6,2.2c2.4-0.3,4.8-0.4,7.2-0.5c6.6-0.2,13.2-1,19.7-2.4
	c3.5-0.6,6.7-2.4,9.1-4.9c1.5-1.6,2.3-1.6,4.1-0.3c2.7,2,5,4.5,7,7.2c1.2,1.7,2.4,3.4,3.6,5.1c1.1,1.6,1.8,3.4,2,5.3
	c0.3,2.5-0.4,3.8-2.6,4.8c-3.2,1.3-6.6,2-10.1,2c-11.5,0.4-23-0.2-34.5-1.7c-1.7-0.2-3.5-0.3-5.2-0.5c-2.9-0.3-4,0.5-4.3,3.5
	c-0.4,3.4-0.7,6.8-1,10.3c-0.7,6.8-1.5,13.7-2.2,20.5c-0.9,8.4-1.8,16.7-2.7,25c-0.4,4-1,8.1-1.5,12.1c-0.5,4.2-0.8,8.4-0.9,12.7
	c0,2.6-0.1,5.3-0.4,7.9c-0.2,2.4,0.1,4.8,0.8,7.1c0.4,1.5,1.1,1.7,2.2,0.6c1-0.9,1.8-2,2.5-3.2c5-8.8,8.9-18.3,11.6-28.1
	c0.3-1,0.3-2.1,0.1-3.1c-0.4-2-0.5-4.1-0.1-6.2c0.3-2.8,0.3-5.6,0.1-8.4c-0.1-0.9-0.1-1.8-0.1-2.6c0-4.8,0.5-9.6-0.1-14.4
	c-0.3-2.2,0.7-3.4,2.8-3.7c4.2-0.7,8.4-1.4,12.6-0.6c1.2,0.2,2.3,0.5,3.4,1c3.2,1.4,5.3,4.6,5.3,8.2c0.1,5.7-0.3,11.3-1.2,17
	c-1,8-2.1,16-3,24c-0.5,4.6-0.5,9.3-0.6,13.9c0,1.5,0.3,3,0.8,4.5c1.1,3.3,3.4,4.6,6.7,3.7c4.2-1,8-3.3,10.8-6.6
	c2.3-2.8,4.1-5.9,5.2-9.4c2.5-6.9,3.4-14.4,2.8-21.7c-0.5-6.3-0.4-12.6,0.1-18.9c0.1-3.4-0.1-6.9-0.5-10.3c-0.3-3.2,0.1-4,3.2-4.8
	c4.7-1.2,9.6-1.2,14.2,0.1c3.4,0.7,6,3.4,6.5,6.9c0.9,4.7,0.4,9.4-0.2,14.1c-1,7.9-1.9,15.7-2.8,23.6c-0.5,5.1-0.9,10.2-1.3,15.3
	c-0.2,3,0.1,6.1,1,9c0.4,1.8,2,3.1,3.8,3.1c1.3,0.1,2.6,0,3.8-0.4c5.2-1.8,9.6-5.5,12.1-10.4c2.9-5.2,4.8-10.9,5.6-16.7
	c1.2-7,1.1-14.2-0.2-21.2c-0.6-2.8-1.7-5.5-3.2-8c-1.1-2-3-3.6-5.2-4.5c-0.3-0.1-0.6-0.2-0.9-0.4c-2.3-1.2-2.7-2.5-1.4-4.6
	c0.9-1.5,2.2-2.8,3.6-3.8c2.1-1.4,4.5-2.4,7.1-2.9c4-0.8,6.9,1.3,9.5,4c1.7,2,3,4.4,3.6,7c1.8,6,2.4,12.3,1.8,18.5
	c-0.5,5.7-1.4,11.3-2.8,16.8c-2.2,8.7-6.3,16.7-12.1,23.5c-6.6,7.5-15,10.7-24.9,9c-5.2-0.8-9.9-3.8-12.7-8.3
	c-1.8-2.4-3.2-5.1-4.3-8c-0.1-0.2-0.2-0.4-0.3-0.5c-0.9,0.3-1,1-1.2,1.6c-2,3.7-4.6,7.1-7.6,10.1c-6.7,6.9-20.8,7.9-28.9,0.3
	c-4.4-4.2-7.3-9.6-8.3-15.6c-0.1-0.4-0.1-0.8-0.2-1.2c-0.1-0.3-0.3-0.6-0.7-0.6c-0.3,0-0.6,0.1-0.8,0.5c-0.2,0.5-0.4,1-0.6,1.6
	c-2.4,5.2-4.8,10.5-8.4,15c-0.7,0.9-1.6,1.8-2.5,2.5c-5.6,4.3-12.5,3.2-16.1-2.9c-2.1-3.3-3.6-7-4.4-10.8c0-0.3-0.1-0.6-0.2-0.9
	c-0.4-0.8-0.8-0.8-1.4-0.1c-0.1,0.2-0.3,0.4-0.4,0.6c-2.5,4.7-6.1,8.7-10.4,11.8c-11.6,8.9-25.2,6.1-34-4.2
	c-4-4.7-6.2-10.4-7.5-16.4c-3.3-15.1-0.1-28.9,8.5-41.5c4-6.1,10.3-10.3,17.6-11.6c7.7-1.3,15.3,5.8,14.7,13.2
	c-0.8,8.8-3.2,16.9-9,23.9c-2.5,3.2-5.6,5.9-9.2,7.9c-1,0.5-2,1.1-2,2.4c-0.2,4.9-0.4,9.8,0.6,14.6c0.4,2.5,1.5,4.8,3.1,6.7
	c2.2,2.9,6.1,3.7,9.3,2c3.4-1.8,6.5-4.2,8.8-7.3c5-6.1,8-13.6,8.7-21.5c0.5-5,1-10,1.1-15.1c0.2-3.3,0.2-6.7-0.1-10
	c-0.2-1.6,0-3.3,0.3-4.9c0.2-0.9,0.2-1.8,0.1-2.6c-0.4-2.4-0.5-4.9-0.4-7.4c-0.1-8.1,0.2-16.2-0.3-24.2c-0.1-1.5,0.2-3,0.2-4.5
	c0-2.9-1.1-4.4-3.8-5.4c-3.7-1.2-7.5-2.1-11.4-2.9c-7.2-1.5-14.4-2.8-21.5-5.1c-13-4.4-25.5-10.5-37-18c-13.8-9-26.8-19.2-38.7-30.7
	c-4.8-4.6-9.7-9-14.7-13.4c-4.4-3.9-9.7-5.5-15.3-6.2c-2.1-0.2-4.3-0.3-6.5-0.1c-2.4,0.1-4.7,0.9-6.7,2.3c-2.5,1.7-4.1,4-4,7.2
	c0,0.8,0,1.6,0,2.4c0,39.6,0,79.2,0,118.8c0,10.1,0.5,20.3,1.2,30.4c0.3,5.3,0.7,10.7,0.7,16c-0.1,7.6,0.2,15.2,0.5,22.8
	c0.2,6.3,0.9,12.6,1.2,18.9c0.3,6.8,0.4,13.6,0.7,20.4c0.2,7.1,0.9,14.2,1.9,21.3c0.8,5,3.3,9.6,7.2,13c1.7,1.5,3.8,2.5,6,2.8
	c3.2,0.5,6.5,1,9.7,1.5c1.7,0.3,3.3,0.6,4.9,1c1.3,0.3,2.7,0.4,4,0.2c1.8-0.2,2.3-0.8,2.4-2.6c0.1-2.8,0.1-5.6,0.1-8.4
	c0-5.9,0.5-11.7,1.5-17.5c0.5-4,1.8-7.8,3.6-11.4c3.4-6.4,8.9-10.4,15.4-13.2c7.6-3.1,15.9-4.2,24-3.1c16.4,2,30.9,8.5,44.1,18.1
	c6.9,5,10.5,12,11.8,20.2c0.9,6.1-1.2,11.5-5.3,16.1c-1.3,1.5-2.7,2.8-4.2,3.9c-1.4,0.8-2.1,2.4-1.8,3.9c1,4.3-4.4,9.9-9.3,10
	c-5.3,0.1-10.2-0.6-14.1-4.8c-0.8-0.8-2-1.2-3.1-1c-1.8,0.2-3.5,0.4-5.2,0.6c-7.4,0.8-14.9,0.8-22.2,0c-4.4-0.5-4.7-0.3-4.7,4.1
	c-0.1,3.8,0.1,7.5,0.4,11.3c0.2,2.6,0.1,5.3,0.2,7.9c0,4,0.1,8,0,12c-0.2,14-2,27.7-7.7,40.7c-0.2,0.4-0.3,0.7-0.5,1.1
	c-0.6,1.5-0.5,1.7,0.9,2.5c1.8,1,3.7,2,5.5,3c8,4.5,15.8,9.4,23.4,14.7c9.2,6.3,18.7,12.3,28.2,18.3c3.3,2.1,6.4,4.5,9.9,6.3
	c0.4,0.2,0.8,0.5,1.1,0.9c3.4,3.7,7.6,6.7,12.1,8.9c7.7,3.9,14.9,8.8,22.3,13.1c7.8,4.4,15.9,8.2,24.3,11.4
	c14.7,5.8,29.9,8.5,45.5,10.2c9.7,1.1,19.5,1.5,29.2,1.5c13.4-0.1,26.8-2,39.8-5.6c14.4-3.9,28.4-9.4,41.8-16.2
	c5.3-2.7,10.3-6,14.8-9.8c1.3-1.2,2.9-2.1,4.1-3.3c5.7-5.5,11-11.4,14.8-18.4c2.4-4.4,4.6-9,6.5-13.6c0.5-1.3,1.2-2.6,1.8-3.9
	c3.7-7.1,5.8-15,6.1-23c0.8-13.5-1.6-26.9-6.8-39.4c-4.1-10.2-10.9-19-19.6-25.5c-3.3-2.5-6.4-5.3-10-7.5c-7.5-4.5-16-6.7-24.7-6.4
	c-7,0.2-14,1.2-20.9,2.9c-7.5,1.8-14.7,4.5-21.6,7.9c-0.6,0.3-1.3,0.6-2,0.9c-2.1,1-4.7,0-5.6-2.2c-0.3-0.8-0.4-1.6-0.3-2.4
	c0.1-0.9,0.3-1.7,0.6-2.6c1.7-5.1,5.1-9.5,9.5-12.6c6.3-4.6,13.8-7.3,21.6-7.7c7.7-0.4,15.4,0.5,22.8,2.5c4.4,1.2,8.6,3.2,12.3,5.8
	c3.6,2.3,7.2,4.4,10.9,6.5c6.5,3.7,12.2,8.6,17,14.3c4.3,4.9,8.2,10,11.8,15.5c5,8,8.6,16.9,10.6,26.1c1.3,5.8,2.6,11.7,2,17.8
	c-0.4,4.6-0.3,9.3-0.5,13.9c-0.1,2.6-0.5,5.3-1.1,7.8c-4.2,21.3-14.3,41-29.1,56.9c-11.5,12.6-25,22.6-39.7,31
	c-9.4,5.4-19.4,9.5-29.9,12.1c-3.5,0.9-7,1.5-10.6,1.8c-0.5,0.1-0.9,0.2-1.4,0.3h-25.9c-0.6-0.2-1.2-0.4-1.9-0.3
	c-8.3-0.3-16.6-1.2-24.8-2.4c-19.4-2.7-38.3-8.7-55.8-17.6c-12.2-6.3-24-13.6-35.1-21.6c-7.3-5.1-14.4-10.4-21.7-15.4
	c-12.1-8.3-24.5-16-37.1-23.6c-5.7-3.5-11.3-7.2-17.4-10.1c-4.1-1.9-8.2-4-12.3-5.9c-1.4-0.7-2.9-1.2-4.4-1.8
	c-1.2-0.5-2.6-0.2-3.5,0.8c-0.8,0.8-1.7,1.5-2.6,2.2c-6.8,5.4-14.8,7.7-23,9.6c-3.1,0.7-6.2,0.3-9.3,0.6c-4.9,0.5-9.9,0.5-14.9-0.2
	c-8-1.2-14.7-4.6-19.3-11.5c-2.4-3.3-2.7-7.7-0.8-11.4c2.6-6.3,7.5-11.3,13.7-14.1c5.9-2.7,12.3-4.2,18.8-4.4
	c8.1-0.3,16.2,0.1,24,2.5c1.1,0.3,1.7,0.1,1.9-1c0.6-3.1,1.3-6.1,1.8-9.2c1.3-8,0.8-16.1,1.4-24.1c0.1-0.3,0.1-0.7,0-1
	c-0.6-2.6-0.3-5.3-0.3-7.9c0.1-3,0-5.9-0.5-8.9c-0.6-2.2-0.6-4.5,0-6.6c0.2-0.8,0.3-1.6,0.1-2.4c-0.3-1.9-0.5-3.8-0.8-5.7
	s-1.1-2.6-3-2.8c-0.3,0-0.7,0-1,0c-3.4,0.1-6.7-0.4-9.9-1.4c-3.6-1-7.3-1.6-11.1-2c-3.8-0.3-7.5-0.8-11.2-1.7
	c-3.6-0.9-7.4-1.3-11.2-1.2c-4.7,0.2-9.4,0-14.1-0.5c-3.2-0.4-6.4-0.6-9.5-0.9c-8-0.6-16,0.5-23.9,1.5c-3,0.4-5.9,1.6-8.4,3.4
	c-3.5,2.4-4.7,5.7-3.6,9.9c0.5,1.4,1.1,2.8,1.9,4.2c0.7,1.2,0.5,2.8-0.5,3.8c-1.1,1.1-2.7,1.5-4.2,1c-0.8-0.3-1.5-0.9-2.1-1.6
	c-2.1-2.4-3.6-5.3-4.4-8.5c-0.2-1-0.5-1.9-0.9-2.7v-1.4c0.4-0.8,0.7-1.6,0.8-2.5c0.8-4.4,3.7-8.1,7.8-10c2.7-1.4,5.6-2.4,8.6-3
	c3.5-0.7,7.1-1.4,10.5-2.4c3.6-0.9,7.1-2.5,10.2-4.7c3.5-2.3,5.7-6.1,6.1-10.2c0.3-2.9,0.5-5.9,0.5-8.8c0-46.8,0-93.6,0-140.4
	c0-63.3,0-126.7,0-190c0-7.7-0.2-15.3,0.4-23c0.4-5.4,0.7-10.8,1.6-16.2c0.8-5.3,2.1-10.3,5.2-14.7c4.9-6.9,11.7-10.7,19.8-12.5
	c6.2-1.3,12.5-1.8,18.8-1.4c3.6,0.1,7.2,1,10.4,2.6c1.2,0.5,2.2,1.3,3,2.4c1.6,2.3,1,4.3-1.6,5.4c-1.4,0.5-2.9,1-4.3,1.4
	c-7.4,2-12.7,6.2-14.8,13.9c-0.5,1.9-1.3,3.8-1.9,5.7c-1.5,4.6-2.7,9.2-2.4,14.1c0,0.5,0,1-0.1,1.4c-0.7,8.8-0.9,17.6-1.2,26.3
	c-0.1,3.2,1.2,5.2,4.2,6.3c2.8,1.2,5.9,1.5,8.9,0.9c2.3-0.5,4.5-1.1,6.7-2c5.9-2.4,11.5-5.5,16.6-9.4c10.5-7.9,18.1-17.8,22-30.4
	c2.5-8,2.9-16.3,0.2-24.3c-2.6-7.9-7.1-15.1-13.2-20.9c-10.1-9.7-22.5-14.7-36.3-15.5c-8.7-0.5-17.3-0.6-26,1.3
	c-15,3.3-28,10-38.2,21.6c-7.5,8.5-13,17.9-13.8,29.5c-0.7,8.6,0.4,16.9,6.1,24c0.8,0.9,1.4,1.9,1.9,3.1c0.9,2.6-0.9,4.7-3.6,4.3
	c-1.6-0.2-3.1-1.1-4-2.4c-4-4.8-6.7-10.6-8-16.7C0.8,72.6,0.5,71.7,0,71V58.6c0.5-0.8,0.7-1.6,0.8-2.5c0.3-1.7,0.7-3.4,1.2-5.1
	c2.5-7.9,6.7-14.8,11.8-21.2c6.5-8.5,15-15.4,24.6-20.2c12.5-6,25.9-8.8,39.8-9.3c0.8,0.1,1.6,0,2.4-0.3H97.4z M160.7,464.2
	L160.7,464.2h9.6c1.8,0,3.7-0.2,5.5-0.5c2.1-0.4,2.4-0.6,2.7-2.7c0.4-3.2,2.4-5.9,5.2-7.3c2.2-1.1,4.6-1.6,7-1.4
	c3.1,0.1,6,1.2,8.4,3c1.5,1.2,2.3,1.1,3.7,0.1c4.3-3.3,7.7-12.2,4.3-18.2c-2.8-5.2-6.9-9.5-11.8-12.6c-6.7-4.2-14-7-21.5-9.4
	c-9.8-3.2-19.3,1.7-23.8,9.6c-1.8,3.3-3,6.9-3.5,10.6c-1,6.5-1.2,13.1-0.6,19.6c0.3,2.1,0.4,4.1,0.2,6.2c-0.3,2.4,0.2,2.9,2.6,2.9
	C152.7,464.2,156.7,464.2,160.7,464.2z M85.2,552.6c-1.3,0-2.9,0-4.5,0c-4.8,0.2-9.5,1.9-13.3,4.9c-3.3,2.5-3.5,5.8-0.6,8.8
	c1,1.1,2.2,1.9,3.4,2.6c4.1,1.9,8.6,2.7,13.1,2.5c5.2-0.1,10-1.8,14.7-4.1c3.6-1.7,6.6-4.3,8.8-7.6c1.4-2.1,1.1-3-1.3-3.5
	s-4.6-1.2-6.9-1.9C94.2,552.8,89.7,552.2,85.2,552.6z M217.4,305.7c-0.2-1.5-0.3-3-0.6-4.4c-0.2-1.2-1-1.4-1.9-0.5
	c-1,0.9-1.8,2.1-2.3,3.3c-2.4,6.2-5.2,12.4-6.7,19c-0.2,0.8-0.4,1.7-0.5,2.6c-0.1,0.9,0.4,1.1,1.2,0.7c0.6-0.3,1.1-0.7,1.5-1.1
	c1.8-1.8,3.4-3.9,4.6-6.1C215.2,315,216.8,310.4,217.4,305.7z M768.5,336c-0.7,5.1-2.3,10-4.8,14.5c-3.1,5.5-6.8,10.5-12.1,14.1
	c-7,4.7-14.6,6.5-22.5,3c-8.7-3.9-14.6-10.5-17-19.9c-0.2-0.9-0.4-1.7-0.6-2.5c-0.3-0.8-1-0.8-1.4-0.1c-0.2,0.4-0.4,0.9-0.5,1.3
	c-2.2,5.5-4.8,10.8-7.8,15.9c-0.5,0.8-1,1.6-1.6,2.4c-3.3,4.2-8.1,5.3-12.8,2.8c-5.9-3.2-9.7-8-10.8-14.7c-0.8-5-2-9.9-2.3-14.9
	c-0.4-6.3-0.4-12.6,0-18.9c0.1-1.2,0.2-2.4,0.2-3.6c-0.4-3.9-0.4-7.8,0-11.7c0.1-1.4-0.1-2.7-0.7-4c-0.5-1.4-1.4-1.6-2.6-0.6
	c-1.4,1.2-2.4,2.8-3.1,4.5c-3.3,7.5-5.7,15.3-7.2,23.3c-1.8,8.6-2.8,17.4-4.2,26c-0.4,2.4-0.4,4.8-0.6,7.2c-0.1,1.5,0.2,3,0.8,4.4
	c1.1,2.9,0.3,4-2.7,4.4c-3.7,0.6-7.4,0.5-11-0.3c-3.8-0.9-6.1-3.2-6.8-6.9s-1.6-7.5-0.8-11.4c0.1-0.4,0-0.8-0.3-1
	c-0.8,1-1.4,2.1-1.8,3.3c-1.6,4-3.8,7.7-6.6,11.1c-1.1,1.3-2.5,2.5-4,3.4c-5,2.9-10.1,2-13.7-2.6c-2.6-3.4-4.4-7.3-5.3-11.5
	c-0.7-3.4-1.2-6.9-1.3-10.5c-0.7-9.6-0.8-19.2-0.4-28.8c0.4-12.6-0.6-25.1-0.2-37.6c0.2-5.3-0.3-10.5-0.4-15.8
	c0-2.2-0.6-2.9-2.7-3.3c-3.5-0.7-6.9-1.4-10.4-1.9c-3.8-0.5-16.7-1.5-20.4-2.2c-1.2-0.2-2-1.2-2-2.3c0-1.2,0.9-2.3,2.1-2.5
	c1.5-0.3,12.4-0.8,13.9-0.8c4.9,0,9.8,0,14.6,0c3.2,0,3.7-0.6,3.2-3.7c-0.4-2.2-1-4.4-1.4-6.6c-0.6-2.9,0-4,2.9-4.7
	c3.5-1,7-2.1,10.8-2c3.4,0.1,6.8,0.8,10,2.1c2.2,0.9,3.8,2.8,4.4,5.1c0.3,1.3,0.5,2.7,0.6,4c0.1,1.2,0.3,2.4,0.5,3.6
	c0.1,0.7,0.6,1.4,1.4,1.5c1.4,0.3,2.9,0.1,4.2-0.6c1-0.4,1-1.4,0.8-2.3c-0.3-2.2-0.5-4.4-1-6.6c-0.8-3.2-0.1-4.2,2.9-5.2
	c6.7-2.2,13.3-2.5,20,0.2c3,1,5.1,3.7,5.3,6.8c0.1,1,0,2.2,1.2,2.6s1.7-0.7,2.4-1.3c0.4-0.4,0.8-0.8,1.3-1.1c1.8-1.4,2.9-1.4,4.7,0
	c4.6,3.5,8.3,8,10.8,13.2c0.6,1.1,0.9,2.2,1.1,3.4c0.3,2.8-0.6,4.5-3.2,5.5c-2.2,0.9-4.4,1.3-6.8,1.5c-3.1,0.2-6.2,0.4-9.3,0.4
	c-2.4,0-2.5,0.2-2.9,2.5c-0.2,1.5-0.4,3-0.4,4.5c0,1.2-0.1,2.4-0.2,3.6c-0.7,4.3-1.1,8.6-1.2,12.9c-0.3,4.9-0.7,9.7-1.2,14.6
	c-0.3,2.9,0.2,5.7-0.6,8.6c0.8-0.5,0.9-1.3,1.2-2c1.3-3.7,3.1-7.2,5.3-10.5c2.1-3.2,5.2-5.7,8.8-7.2c2.3-0.9,5-0.8,7.2,0.3
	c4.8,2.4,8.6,5.7,10.5,11c2.4,6.5,3.8,13.4,4.1,20.4c0.2,5.9,1,11.8,0.7,17.7c-0.2,5-0.2,10.1-0.3,15.1c-0.1,1.7,0.2,3.4,0.8,5
	c1.1-0.3,1.2-1.2,1.6-1.9c6-12.2,11.5-24.6,14.7-37.9c1.1-4.8,2.8-9.4,5.2-13.6c3.3-6.3,8.6-11.3,15-14.4c3-1.4,6.3-1.9,9.6-1.2
	c7,1.4,11.3,7.7,10.6,14.7c-0.8,7.3-3.3,14.2-7.3,20.3c-1.9,3.1-4.6,5.6-7.7,7.4c-1.4,0.8-2.6,1.8-3.7,3c-1.2,1.2-1.8,2.9-1.9,4.6
	c-0.2,4.2,0.2,8.5,1.2,12.6c0.5,2,1.5,3.9,2.8,5.5c2.8,3.3,6.4,4,10,1.7c4.2-2.6,7.9-6.1,10.6-10.2c3.3-4.9,5.3-10.5,5.9-16.3
	c0.2-1.4,0.3-2.7,0.5-4.1c0-0.5,0.1-0.9,0.3-1.4c0.3-1.3,1.3-2.3,2.6-2.6c1.5-0.2,2.4,0.7,3,1.9l0.4,0.9L768.5,336z M617.3,351.3
	c0,3-0.1,5.6,0.7,8.1c0.2,0.7,0.2,1.7,1.3,1.8c0.8,0.1,1.3-0.6,1.7-1.1c1.2-1.4,2.2-2.9,3.1-4.5c3.8-7,6.9-14.4,9.2-22.1
	c0.9-2.5,1.5-5.1,1.7-7.7c0.1-5.8,0.3-11.7,0.4-17.5c0.1-6.1,0-12.3,0.3-18.5c0.2-6,0.3-12,0.2-18c-0.2-1.9-0.1-3.8,0.3-5.7
	c0.6-2.1-0.6-4.2-2.7-4.8c-0.2-0.1-0.4-0.1-0.6-0.1c-0.6-0.1-1.3-0.1-1.9-0.1c-4.4,0-5,0.5-5.2,4.8c-0.2,2.3-0.1,4.6-0.3,6.9
	c-0.4,4.7-1,9.4-1.7,14c-0.8,5.5-0.6,11.2-1.9,16.6c-0.2,1.3-0.4,2.5-0.5,3.8c-0.8,6.2-0.7,12.4-1.8,18.6c-1.1,5.6-1,11.3-1.4,16.9
	C617.7,345.8,617.1,348.8,617.3,351.3z M744.4,304.6c0-1,0-1.9,0-2.9c0-0.7-0.2-1.3-0.9-1.5s-1,0.3-1.4,0.7
	c-1.4,1.7-2.6,3.7-3.3,5.8c-1.1,2.8-2.2,5.7-3.2,8.5c-1.1,3.2-2,6.6-2.7,9.9c-0.1,0.5-0.2,1,0.4,1.2c0.4,0.1,0.8,0,1.1-0.4
	c1.1-1.1,2.2-2.3,3.2-3.5C741.8,317.6,744.3,311.2,744.4,304.6L744.4,304.6z M443.3,99.2c0.5-0.7,0.9-1.6,1-2.5
	c1.4-6.3,4.1-12.2,8-17.3c1.3-1.8,2.9-3.4,4.8-4.6c5.1-3.1,11.6-2.4,16,1.6c1.9,1.6,3.4,3.6,4.6,5.8c2.9,5.2,4.7,10.9,5.4,16.8
	c0.8,8,1.5,15.9,1.6,23.9c0.1,4.4-0.3,8.8-0.4,13.2c-0.1,2.7-0.1,5.4,0,8.2c0,1.1,0.3,2.2,0.9,3.1c1-0.2,1.1-1,1.4-1.6
	c3.5-6.8,6.6-13.7,9.5-20.7c0.9-2.3,1.4-4.8,1.5-7.2c0.6-8.2,1.8-16.4,5.1-24c2.5-5.8,6.2-10.9,11-15c3.2-2.7,7.2-4.3,11.4-4.6
	c5.3-0.5,10.6-0.7,15.4,2c1.3,0.7,2.9,0.6,4.1-0.1c4.2-1.8,8.8-2.6,13.4-2.2c2,0.1,4,0.4,5.9,0.9c2.7,0.6,4.9,2.7,5.6,5.4
	c1,2.9,0.7,5.9,0.5,8.8c-0.2,2.3-0.2,4.6,0,6.9c0.4,3.6-0.2,7.2-0.4,10.8c-0.3,4.9-0.5,9.9-0.9,14.8c-0.4,6.4-0.9,12.9-1.4,19.4
	c-0.1,1.7-0.7,3.3-0.5,5c0,1,0.2,2,0.7,2.8c0.9-0.4,1.2-1.2,1.5-2c3.6-9.9,7.5-19.8,10.4-29.9c0.1-0.3,0.2-0.6,0.3-0.9
	c0.2-0.6,0.7-0.9,1.3-0.9c0.6,0,0.8,0.4,1.1,0.8c0.4,0.9,0.6,2,0.5,3c-0.1,2.2-0.5,4.5-1,6.6c-2.2,10.7-5,21.2-8.5,31.5
	c-1.7,5.1-3.9,10-6.6,14.6c-0.7,1.2-1.1,2.6-1.2,4.1c-0.1,3.7,0,7.4-0.4,11c-0.4,4.5-1.7,9-3.9,13c-2.6,4.9-7.3,8.3-12.8,9.2
	c-5.7,1.1-11.5,0.8-17.1-0.9c-3.6-1.2-6.6-3.2-8.3-6.8c-2-3.9-1.8-8.5,0.6-12.1c2.2-3.5,5.2-6.3,8.9-8.2c3.5-1.9,6.8-4.2,10.2-6.2
	c2-1.2,3.1-3.4,2.7-5.7c-0.4-6-0.4-12,0-18c0.1-2.5-0.2-5-0.8-7.4c-1.2,0.5-1.4,1.4-1.8,2.1c-3.5,7.7-10,11.4-17.8,13.1
	c-0.5,0.1-1,0.1-1.4,0c-6.9-1.1-12.8-4.1-17-9.8c-2.5-3.4-4.9-6.9-6.2-11.1c-0.1-0.4-0.2-1-0.8-1.1s-0.8,0.5-1,0.9
	c-0.8,1.4-1.5,2.8-2.1,4.3c-1.5,3.8-3.6,7.3-6.1,10.6c-3.1,4.5-9.1,5.9-13.9,3.2c-5.7-3-9.6-7.6-11-13.9c-1.1-5.1-2-10.4-2.7-15.6
	c-0.8-5.5-0.5-11-0.4-16.5c0.1-2.1,0.1-4.2-0.1-6.2c-0.1-0.3-0.1-0.7,0-1c0.6-3.4,0.6-6.8,0-10.2c-0.1-1.1,0-2.2,0.3-3.3
	c0.3-1.7,0.2-3.5-0.4-5.2c-0.4-1.8-2.1-2.2-3.4-0.8c-0.4,0.5-0.8,1-1.1,1.6c-3.5,5.4-5.3,11.4-7,17.5c-2.4,8.5-3.6,17.2-4.9,25.9
	c-1,7-1.5,14-2.8,20.9c-0.3,1.4-0.1,2.8,0.5,4c0.2,0.4,0.4,0.9,0.5,1.3c0.4,1.5,0,2.4-1.5,2.7c-5.4,1-10.8,1.1-16-1.2
	c-2.3-1-3.9-3.2-4.2-5.7c-0.5-2.9-1.1-5.8-1.6-8.7c-0.1-0.8-0.3-1.7-0.7-2.4c-0.9,0.3-1,1.2-1.3,1.8c-1.7,3.6-3.8,7.1-6.2,10.3
	c-0.9,1.2-1.9,2.3-3.1,3.4c-4.5,4.1-11.5,3.7-15.5-0.8c-0.3-0.3-0.5-0.6-0.8-0.9c-1.8-2.5-3.2-5.2-4.2-8.1c-0.8-2.2-1.5-4.4-2-6.7
	c0-0.8-0.3-1.5-0.9-2c-0.8,0.3-1,1.2-1.3,1.9c-1.9,3.7-3.7,7.4-5.9,11c-0.9,1.5-1.9,2.9-3,4.3c-4.2,5.1-9.3,5.3-14.8,3.6
	c-1.1-0.5-2.1-1.3-2.8-2.2c-2.8-3.2-4.7-6.9-5.7-11c-0.2-0.6,0-1.7-0.9-1.7s-1,1-1.3,1.6c-1.6,3.1-3.1,6.3-5.6,8.9
	c-3.6,3.6-8.2,5.9-13.2,6.7c-1.8,0.3-3.7,0.1-5.4-0.6c-6.7-2.2-12.1-6.1-15.6-12.4c-1.5-2.6-3.3-5.1-4-8c-1,0.1-1.1,0.7-1.3,1.2
	c-1.4,2.6-2.7,5.3-4,7.9c-1.6,3.2-3.8,6-6.5,8.2c-4.9,4.2-13.2,2.8-16.8-2.8c-1.7-2.7-2.9-5.7-3.5-8.9c-0.1-0.8,0-1.9-1-1.9
	s-1,1.1-1.4,1.7s-0.8,1.6-1.2,2.4c-1.5,3.4-4,6.2-7,8.4c-2,1.4-4.2,2.7-6.5,3.6c-3,1.4-6.4,1.6-9.6,0.6c-6.5-2.1-11.8-5.7-15.3-11.6
	c-1.8-3.1-3.8-6.1-4.3-9.8c0-0.4-0.3-0.8-0.7-0.9c-0.5-0.1-0.7,0.3-0.9,0.7l-1.4,2.5c-2.8,5-6.6,9.3-11.1,12.8
	c-11.7,9-26.3,7.3-36.1-3.9c-5.1-5.8-7.3-12.8-8.7-20.2c-2.7-14.5,0.6-27.8,7.9-40.3c3.7-6.6,9.8-11.4,17.1-13.5
	c2.1-0.6,4.2-0.9,6.4-0.8c7.4,0.4,13.5,8.5,12.4,17c-1.2,9.8-5.4,18-11.6,25.3c-2,2.3-4.5,4.2-7.3,5.4c-2,0.9-3.1,2.2-2.7,4.4
	c0.1,0.7,0.1,1.4-0.1,2.2c-1.1,5.5,0,10.8,2,16c2.3,6,7.8,7.2,12.8,4.8c1.9-0.9,3.6-2.1,5.1-3.6c5.5-5.4,9.5-12.1,11.8-19.5
	c0.8-2.7,0.9-5.5,1.4-8.3c1.3-8.1,3.5-16,6.4-23.6c2.2-5.8,5.9-10.9,10.8-14.7c2.9-2.3,6.3-3.8,10-4.4c2.5-0.3,5.1-0.5,7.6-0.5
	c2.5,0,5,0.5,7.2,1.7c1.8,1,3.9,1.1,5.8,0.2c3.3-1.4,6.9-2,10.6-1.8c2.8,0.1,5.5,0.7,8,1.9c3.9,1.6,6.2,5.6,5.5,9.7
	c-0.4,4.5-1.4,8.8-2.2,13.2c-2.1,10.8-4.7,21.4-6.1,32.3c-0.3,2.4-0.3,4.8-0.2,7.2c0.2,3,0.2,5.9,0,8.9c0,0.5,0,1,0.1,1.4
	c0.4,1.7,1.8,2,3,0.8c0.4-0.4,0.7-0.9,1-1.3c5-7.2,8.5-15.2,11.2-23.5c0.9-2.7,0.5-5.7,0.7-8.6c0.5-9.1,2.9-17.9,7-26
	c2.1-4.1,5.1-7.8,8.7-10.8c3.7-2.9,8.3-4.7,13-5.1c3-0.3,5.9-0.2,8.9,0.2c2.1,0.2,4.1,1,5.7,2.3c0.3,0.2,0.5,0.4,0.8,0.6
	c1.2,0.7,1.6,0.5,1.7-0.8c0-0.4,0-0.8,0-1.2c0-9.3,0.1-18.6-0.2-27.8c-0.2-7-0.8-14-1.4-21c-0.4-2.6-0.9-5.2-1.6-7.8
	c-0.2-0.9-0.3-1.7-0.4-2.6c-0.2-2.1,1.4-4,3.5-4.2c0.1,0,0.1,0,0.2,0c6-0.8,12.1-0.8,18.2-0.1c4.8,0.6,8.4,4.5,8.7,9.3
	c0.1,3.8,0,7.7-0.3,11.5c-0.5,7-0.9,14-1.8,21c-0.9,7.9-1.8,15.7-2.7,23.6c-0.3,2.3-0.5,4.6-0.6,6.9c0,4.3-0.9,8.6-1.2,12.9
	c-0.6,8.2-2.1,16.3-2.4,24.6c-0.1,3.9-0.7,7.8-1.1,11.7c-0.5,4.8-0.4,9.6,0.3,14.3c0.2,1,0,2.3,1.2,2.6c1.1,0.3,1.6-0.9,2.2-1.6
	c1.5-1.7,2.7-3.6,3.6-5.6c4.4-8.8,8.1-17.9,10.9-27.4c0.7-2.1,1-4.4,1-6.6c0-6.4,0-12.8-0.1-19.2c0-3.4-0.5-6.9-1.4-10.2
	c-1-3-0.1-4.3,3-5c2.3-0.4,4.5-0.9,6.9-1.2c3.8-0.5,7.7,0.2,11.1,2c2.3,1.1,4,3.3,4.4,5.9c0.7,4.3,0.5,8.6-0.4,12.9
	c-1.9,9.7-3.8,19.3-5.7,29c-0.6,3.8-1,7.6-1.2,11.4c-0.1,2.2-0.1,4.5-0.4,6.7c-0.2,2.3,0,4.7,0.7,6.9c0.6,1.9,1,2,2.6,0.6
	c0.9-0.9,1.7-1.9,2.4-3c5.3-8.8,9.3-18.4,11.7-28.5c0.5-2.1,0.7-4.3,0.7-6.4c0-10.3-0.8-20.4-3.5-30.4c-1.1-4.1-0.3-5.2,3.8-6.3
	c4.6-1.3,9.6-1.3,14.2,0.1c4.6,1.2,7.9,5.4,7.9,10.2c0.1,4.3,0.5,8.6-0.1,12.9C442.8,97.8,442.9,98.6,443.3,99.2z M520.5,128.8
	c-0.3,8.8,0,11.8,1.9,17.9c1.3,4.1,3.3,4.9,7,2.7c3.3-1.9,6-4.7,7.8-8c1.7-3.2,3.1-6.5,4.1-10c2-6.4,3.1-13.1,3.3-19.8
	c0.3-3.7,0.3-7.3-0.1-11c-0.3-2.1-0.4-4.3-0.3-6.5c0.5-4.6-1.4-8.2-4.6-11.3c-2.4-2.3-6.2-2.1-8.5,0.3c-0.1,0.1-0.3,0.3-0.4,0.4
	c-1.1,1.5-2,3.1-2.7,4.8c-1.6,3.7-2.9,7.6-3.8,11.6C522.4,109.8,519.9,119.5,520.5,128.8L520.5,128.8z M350.3,100.4
	c-0.1-2.6-0.1-5.3,0.1-7.9c0.4-3.9-1.5-6.8-3.9-9.4s-6.3-2.6-8.9,0.2c-0.7,0.8-1.3,1.8-1.8,2.8c-2.6,5.3-4.5,11-5.8,16.7
	c-1.6,6.8-2.7,13.7-3.1,20.6c-0.4,5.1-0.4,10.2,0.1,15.3c0.3,2.9,0.9,5.8,2,8.6c1.2,3,3.3,3.7,6.2,2.4c0.6-0.3,1.1-0.6,1.7-1
	c2.6-1.7,4.8-4,6.2-6.8c3-5.4,5-11.3,5.9-17.4C350,116.6,350.5,108.5,350.3,100.4z M271.5,99.4c0.3-3.2-0.3-6.4-0.5-9.6
	c-0.1-2.9-1.5-5.7-3.8-7.4c-2.4-2-6-1.7-8,0.7c-1.1,1.2-2,2.5-2.8,3.9c-2.2,3.8-3,8.1-4,12.2c-3,11.9-4.7,24-4.2,36.3
	c0.1,3.8,0.8,7.6,2,11.3c1.1,3.3,3.2,4.1,6.4,2.6c2.8-1.3,5.1-3.4,6.6-6.1c3.4-5.6,5.1-11.9,6.4-18.2
	C271.4,116.7,271.1,108,271.5,99.4L271.5,99.4z M205.8,90.2c-0.2-1.9-0.3-3.5-0.5-5.1c0-0.6-0.3-1.1-0.9-1.3
	c-0.6-0.2-1.1,0.2-1.4,0.6c-1.2,1.5-2.2,3.1-2.9,4.9c-2.7,6.5-5.1,13.1-7,19.9c-0.2,0.8-1,2,0,2.6c1.2,0.7,1.8-0.6,2.5-1.3
	c4.4-4.3,7.6-9.8,9.1-15.8C205.3,93.3,205.6,91.8,205.8,90.2L205.8,90.2z M545.2,191.2v-0.9c0-1.9-0.3-2-1.9-1.3c-2,0.8-4,1.7-6,2.5
	c-2,0.8-4,1.6-5.9,2.6c-1.3,0.6-2,1.9-2,3.3c0,1.6,0.9,3.1,2.3,4c3.8,2.6,8,2,10.7-1.8C544.1,197.1,545,194.2,545.2,191.2
	L545.2,191.2z M365.1,560c-1.3,2.3-2.8,4.6-4.5,6.6c-3.2,3.5-7,6.4-11.2,8.5c-9.9,4.9-19.5,3.9-28.3-2.5c-5.5-4-9.8-9.6-12.1-16.1
	c-0.4-1.1-0.7-2.3-1-3.5c-0.1-0.3-0.3-0.6-0.6-0.7c-0.4-0.1-0.9,0.1-1,0.5c-0.2,0.5-0.5,1-0.7,1.5c-2.1,5.1-4.5,10.1-7.3,14.8
	c-0.6,1-1.3,2-2,3c-4.2,5.7-10.5,6.9-16.5,3.2s-9.6-9.5-11.1-16.4c-1.4-6.8-2.3-13.7-2.5-20.7c-0.2-5.3-0.5-10.6-0.2-15.8
	c0.3-6,0.2-12,0.3-18c0-2.1-0.2-4.2-0.5-6.2c-0.1-1-0.3-1.9-1.4-2.3c-1-0.3-2.1,0.1-2.7,1c-0.9,1.2-1.8,2.5-2.4,3.8
	c-4,7.6-6.3,15.7-8.1,24c-2.5,12.1-4.3,24.4-5.4,36.8c-0.2,2.1-0.6,4.1-1.1,6.1c-0.4,1.6-0.3,3.3,0.3,4.9c1.4,3.5,0.8,4.3-2.9,4.9
	c-4.1,0.5-8.2,0.4-12.2-0.5c-4.8-0.9-7.1-3.4-7.9-8.1c-0.5-2.8-0.9-5.7-1.4-8.5c-0.1-0.6-0.2-1.3-0.4-1.9c-0.1-0.4-0.1-0.8-0.6-1
	s-0.9,0.3-1.1,0.8c-0.8,1.7-1.6,3.5-2.4,5.2c-1.7,3.5-3.9,6.6-6.5,9.5c-6.7,7-15.2,5.2-20-1.9c-3.5-5.3-5.7-11.4-6.4-17.7
	c-0.7-4.6-0.5-9.2-0.9-13.9c-0.1-0.9-0.1-1.8,0.1-2.6c0.8-3.1,0.5-6.2,0.4-9.3c-0.2-5.6,0-11.2,0-16.8c0.1-6.3-0.4-12.6-1.4-18.9
	c-0.4-2.4,0.3-3.7,2.5-4.2c5.2-1.1,10.4-2,15.7-0.9c6.5,1.3,9.6,5.1,9.8,11.7c0.2,5.4-1.2,10.6-2.2,15.9c-1.9,9.7-4.3,19.4-5.7,29.2
	c-0.3,2-0.6,4-0.6,6c-0.1,4.8-0.7,9.6-0.2,14.4c0.1,1.4,0.3,2.7,0.7,4c0.4,1.3,1.1,1.5,2.1,0.6c1.8-1.6,3.3-3.5,4.4-5.6
	c5-9.2,9-19,11.8-29.1c0.9-3.3,1-6.7,0.4-10c-0.1-1.1-0.1-2.2,0-3.3c0.5-5.4-0.4-10.7-1.5-15.9c-0.8-3.8-1.6-7.7-2.4-11.5
	c-0.7-3.3,0-4.6,3.1-5.7c5.6-2,11.6-2,17.2-0.2c5,1.6,7.5,5.5,7.8,10.5c0.2,4.6,0.9,9.2,0.1,13.9c-0.2,0.9-0.1,1.9,0.3,2.7
	c0.7-0.6,1.1-1.5,1.2-2.3c1.2-3.9,2.6-7.7,4.2-11.5c2.1-4.9,5.5-9.1,9.8-12.2c5-3.4,10.5-3.3,15.5,0.1c3.4,2.5,6.2,5.9,7.9,9.8
	c3.4,7,4.7,14.5,5.3,22.2c0.7,8.9,1,17.7,0.9,26.6c0,3,0,5.9-0.3,8.9c-0.3,2.9-0.2,5.8,0.3,8.6c0.1,0.5,0.2,0.9,0.3,1.4
	c0.3,0.9,0.8,1,1.3,0.3c0.3-0.4,0.5-0.8,0.7-1.2c4.5-8.5,8.4-17.3,11.7-26.3c1.3-3.4,2.1-6.9,2.3-10.5c0.1-4.3,1.4-8.3,2.7-12.4
	c2-6.8,5.3-13.1,9.8-18.5c4.5-5.3,9.9-9.3,16.9-10.6c9.4-1.8,17.3,4.1,18.4,13.6c0.1,2,0,4-0.4,6c-1.2,10.2-5.8,18.7-12.5,26.2
	c-2.3,2.5-5.1,4.5-8.2,5.7c-1.8,0.5-3,2.3-2.7,4.2c0.2,3.1,0,6.2,0,9.4c0.1,4.2,1.2,8.3,3.2,11.9c3,5.5,7.5,6.9,13.1,4.2
	c3.7-1.9,6.9-4.7,9.3-8.2c0.5-0.6,0.9-1.3,1.4-2c4.4-5.2,6.5-11.3,7.4-17.9c0.4-3,1-6,1.5-9c0.3-2.1,1.8-3.7,3.9-4.1
	c1.9-0.5,3.9,0.1,5.2,1.7c1,0.9,1.1,2.4,0.5,3.5c-3,6.1-4,12.6-4,19.3c0.1,4.3,1.6,8.4,4.2,11.8c2,2.8,5,4.3,9.9,2.7
	c7.7-2.4,12.2-7.8,13.5-15.8c1.8-11.1-1.2-21.2-6.9-30.7c-4.5-7.4-10.5-13.5-17-19.1c-0.8-0.7-1.6-1.3-2.3-2.1c-1.9-2-2-3.5-0.5-5.8
	c1.3-1.7,3-3.2,4.9-4.2c3.3-1.8,6.9-3.1,10.6-3.8c5.7-1.4,11.5-2,17.4-1.6c6.5,0.4,12.3,2.6,16.8,7.6c1.5,1.7,2.5,3.7,3,5.9
	c0.2,0.9,0.2,1.7,0.1,2.6c-0.1,1.3-1,2.4-2.4,2.7c-1.4,0.1-2.7-0.9-2.9-2.3c-0.4-2-1-3.8-2.9-4.7c-2.1-1.2-4.6-1.6-7-1.1
	c-2,0.4-3.8,1.2-5.5,2.2c-1.6,1-1.9,2.3-0.8,3.8c0.3,0.4,0.6,0.7,0.9,1.1c5.5,6.6,9.9,14,12.8,22.1c2.8,7.2,4.1,14.8,3.9,22.5
	c-0.1,5.3-1.3,10.5-3.7,15.3c-1.7,3.5-4.2,6.5-7.4,8.7c-5.9,3.9-12.2,6.4-19.3,6.4c-4.3,0-8.5-0.9-12.4-2.5
	c-4.2-1.7-7.7-4.7-10.1-8.6C367.2,563.1,366.2,561.7,365.1,560z M345.9,504.8c-0.3-1.7-0.5-3.4-0.5-5.1c0.1-0.7-0.4-1.4-1.1-1.7
	c-0.8-0.2-1.4,0.3-1.8,0.9c-1,1.1-1.7,2.3-2.3,3.6c-3.1,8-6.7,15.9-8.2,24.4c-0.1,0.7-0.6,1.6,0.1,2s1.2-0.5,1.7-0.9
	c6.8-6,10-13.8,12-22.4C345.9,505.3,345.9,505.1,345.9,504.8z M503.6,313c1-0.5,1.1-1.3,1.4-2c1.1-3.7,2.5-7.3,4.3-10.7
	c2-4.1,5.3-7.5,9.4-9.7c3.1-1.7,6.8-1.6,9.9,0.2c3.4,1.9,6.2,4.8,8,8.3c2.4,4.6,4,9.6,4.5,14.8c0.7,6.7,1.5,13.4,1.7,20.1
	c0.2,5.3-0.2,10.7-0.5,16c-0.2,3,0.1,6.8,1,8.7c0.8,0,1-0.7,1.3-1.2c5-9.3,9.2-19,12.3-29.1c0.1-0.5,0.3-0.9,0.4-1.4
	c0.7-1.8,2-2.6,3.8-2.2c1.8,0.3,3.1,1.9,3,3.7c-0.1,0.8-0.2,1.6-0.5,2.3c-3.7,9.4-7,18.9-11.8,27.8c-1.1,2.1-2.4,4.1-3.9,6
	c-3.6,4.3-8.2,5.1-13.1,2.3c-4.4-2.5-7.7-6.5-9.3-11.2c-1.8-4.9-2.3-9.9-2.8-15c-1-10.3-0.3-20.6-0.5-30.9c0-2.7,0-5.4,0-8.2
	c0-0.5,0-1,0-1.4c-0.1-0.9-0.3-1.8-1.3-2.1c-0.9-0.3-1.8,0.2-2.3,1c-0.7,0.9-1.3,1.9-1.8,2.8c-2.2,4-3.9,8.3-5.1,12.6
	c-2.7,9.3-4.6,18.8-5.6,28.4c-0.6,5.7-1.3,11.4-2.1,17.1c-0.3,1.7-0.1,3.4,0.6,4.9c0.9,2,0.3,3.1-1.8,3.4c-3.4,0.4-6.8,0.8-10.3,0.1
	c-5.1-1-7.3-3.1-8.4-8.2c-0.3-1.6-0.4-3.3-1.2-4.8c-1,0.2-1.4,1-1.9,1.6c-2.7,3.1-5.8,5.8-9.2,8c-9.8,6-21,4.8-29.2-3.4
	c-3.6-3.3-6.3-7.3-8-11.8c-0.2-0.5-0.2-1.2-0.9-1.2s-0.8,0.7-1,1.2c-2.7,5.9-7.1,10.4-12.2,14.2c-9.2,6.8-20.3,6.3-29.2-0.8
	c-6.4-5.1-9.6-11.8-11.4-19.4c-3.1-13.2-0.9-25.7,5.2-37.7c3.2-6.5,8.5-11.7,15-14.7c1.1-0.5,2.2-0.9,3.4-1.2
	c6.9-2.1,12.6,0.9,15.8,7c1.6,3,1.3,6.2,1,9.4c-1.1,8.3-4.6,16.1-10.2,22.4c-2.1,2.4-4.6,4.2-7.5,5.5c-1.6,0.5-2.5,2.1-2.3,3.7
	c0.1,2.2,0,4.5-0.1,6.7c0,3.5,0.7,7,2,10.3c0.4,1.1,1.1,2.2,1.9,3c2.9,3.3,6.9,3.9,10.5,1.4c9.9-7,15.6-16.5,16.2-28.8
	c0-1,0.1-2.1,0.4-3.1c2.2-9.4,4.5-18.7,10.4-26.6c4.4-5.9,9.9-10.1,17.4-11.4s14.9,5,14.6,12.5c-0.4,11.5-4.5,21.3-13.1,29.1
	c-0.8,0.7-1.7,1.2-2.7,1.6c-2.8,1-4.7,3.7-4.7,6.7c-0.3,4.4,0.1,8.8,1.2,13.1c0.5,2.3,1.7,4.4,3.3,6c2.3,2.5,6,3.1,9,1.5
	c2.8-1.3,5.2-3.2,7.2-5.5c2.7-3.3,5.1-6.8,7-10.6c1-1.9,1.6-4,1.7-6.2c0.1-5.3,1-10.7,0.2-16c-0.2-1.1-0.2-2.2-0.1-3.4
	c0.4-7-1-13.8-2.6-20.6c-0.4-1.2-0.6-2.5-0.7-3.8c-0.2-1.5,0.7-2.9,2.2-3.3c5.5-1.9,11-2.2,16.4,0.1c3.9,1.7,5.9,5,6,9.3
	c0.1,3.3,0,6.6,0,9.8L503.6,313z M466.4,305.6c-0.2-1.4-0.3-2.8-0.5-4.1c-0.1-0.6-0.1-1.4-0.9-1.5s-1.1,0.4-1.5,1
	c-1.3,1.8-2.4,3.8-3.2,5.9c-2.1,5.3-4,10.8-5.5,16.3c-0.2,0.7-0.3,1.4-0.5,2.1c-0.1,0.5-0.2,1,0.4,1.3s0.9-0.1,1.3-0.4
	c0.2-0.2,0.5-0.4,0.7-0.7c4.3-4.2,7.4-9.5,8.9-15.4C466,308.6,466.3,307.2,466.4,305.6L466.4,305.6z M413.3,305.5
	c0-1.4-0.1-2.8-0.4-4.1c-0.2-0.5-0.3-1.1-1-1.2s-1,0.3-1.4,0.7c-1.2,1.7-2.3,3.5-3,5.4c-2.3,5.6-4.3,11.4-5.8,17.2
	c-0.1,0.5-0.2,1.1-0.3,1.6c-0.1,0.4-0.1,0.9,0.3,1.1c0.5,0.3,0.9-0.1,1.2-0.4c2.3-1.9,4.2-4.2,5.7-6.7
	C411.2,314.8,413,310.2,413.3,305.5L413.3,305.5z M114.7,335.3c-0.5-8.8,0.6-18.1,0.4-27.4c0-2.3,0-4.6,0-7
	c0.1-8.1,0.4-16.1,0.8-24.2c0.2-3.2,0.1-6.4-0.1-9.6c-0.3-3.9-0.5-7.8-0.6-11.7c-0.1-6.2-0.9-12.3-2.4-18.2
	c-0.9-3.1-0.3-4.1,2.8-5.3c5.8-2.1,12-2.3,17.9-0.6c5.6,1.6,8.1,4.9,8.1,10.7c0,5.3-0.3,10.5-0.6,15.8c-0.5,7.7-0.9,15.3-1.6,23
	c-0.4,4.6-0.9,9.2-1.2,13.8c0,0.4-0.1,0.8-0.1,1.2c-0.1,0.3,0,0.7,0.3,0.9c0.4,0.3,0.8,0,1.1-0.2c0.7-0.6,1.3-1.2,2-1.8
	c7.7-6.5,17.6-5,24.2,0.5c4.5,3.8,7.7,8.9,9.3,14.5c1.7,5.7,2.6,11.6,2.8,17.5c0.2,5.3-0.9,10.5-2.1,15.6c-1.2,5.7-3.5,11-6.7,15.8
	c-4.8,6.7-11.1,10.7-19.4,11.3c-3.3,0.2-6.6-0.3-9.7-1.4c-1.6-0.6-3.3-0.7-4.9-0.2c-4.4,1.3-9.1,1.1-13.4-0.6
	c-2.9-0.9-4.9-3.5-5.3-6.5c-1.3-7.6-1.3-15.3-1.3-22.9C114.7,337.5,114.7,336.6,114.7,335.3z M156.3,315.7c-0.2-2.5-0.2-5.1-0.6-7.7
	c-0.2-2.5-0.8-4.9-1.5-7.2c-1.4-3.9-4.2-4.7-7.4-2.2c-1.6,1.3-3.1,2.8-4.2,4.6c-4.2,6.2-6.6,13.4-6.8,20.9c-0.1,3.2-0.4,6.4-0.6,9.5
	c-0.5,4.9-0.7,9.9-0.6,14.8c0.1,2.1,0.3,4.3,0.5,6.5c0.1,0.9,0.3,1.7,0.6,2.6c0.9,2.5,2.6,4.2,5.4,4.6s4.6-1,6-3.2
	c1.5-2.5,2.8-5.2,3.6-8.1C154.4,339.5,155.7,327.7,156.3,315.7z M396.4,64c-8,0.2-13.6-4.7-14.4-12.2c-0.6-3.8,1.5-7.5,5-9
	c7.1-3.3,15.5-0.2,18.7,6.9c0.1,0.3,0.3,0.6,0.4,0.9c0.3,1,0.6,2,0.8,3c1,4.6-2,9.2-6.6,10.2c-0.6,0.1-1.1,0.2-1.7,0.2
	C397.8,64,396.9,64,396.4,64z"/>
</svg>
